<svg version="1.1" id="Layer_1" xmlns="http://www.w3.org/2000/svg" xmlns:xlink="http://www.w3.org/1999/xlink" x="0px" y="0px"
	 width="100%" viewBox="0 0 235 242" enable-background="new 0 0 235 242" xml:space="preserve">
<path fill="#FEFFFE" opacity="1.000000" stroke="none" 
	d="
M1.000000,91.000000 
	C1.000000,60.666672 1.000000,30.833344 1.000000,1.000012 
	C79.333313,1.000008 157.666626,1.000008 235.999954,1.000004 
	C235.999969,81.666634 235.999969,162.333267 235.999985,242.999908 
	C157.666718,242.999939 79.333427,242.999939 1.000072,242.999969 
	C1.000000,192.500000 1.000000,142.000000 1.000000,91.000000 
M82.243378,18.839996 
	C72.922600,23.624071 63.345222,27.973785 54.340786,33.293327 
	C40.601372,41.410152 30.934698,53.673672 22.579615,66.988045 
	C15.033271,79.013634 10.374725,92.275108 8.130335,106.157394 
	C4.480290,128.734116 7.296763,150.751266 16.931377,171.564896 
	C26.430096,192.084976 40.926910,208.751007 60.298092,220.203049 
	C77.178032,230.182281 95.554932,236.845886 115.802528,236.022964 
	C122.779900,235.739380 129.971695,236.679504 136.699158,235.288574 
	C145.835983,233.399490 154.820969,230.307144 163.507202,226.823547 
	C174.899841,222.254517 185.158752,215.579056 194.212570,207.201782 
	C208.400589,194.073975 218.634109,178.449463 224.596939,159.960251 
	C227.558075,150.778549 230.349091,141.676971 230.034790,131.886932 
	C229.874466,126.892838 229.973206,121.889130 230.011871,116.890198 
	C230.140427,100.265800 224.573013,85.064140 216.923187,70.843132 
	C208.124298,54.486019 195.755814,41.220779 179.825104,30.922503 
	C165.910492,21.927523 150.954651,15.480660 135.022278,13.539262 
	C117.686172,11.426815 99.809517,11.575443 82.243378,18.839996 
z"/>
<path fill="#C0F0D0" opacity="1.000000" stroke="none" 
	d="
M82.615646,18.698997 
	C99.809517,11.575443 117.686172,11.426815 135.022278,13.539262 
	C150.954651,15.480660 165.910492,21.927523 179.825104,30.922503 
	C195.755814,41.220779 208.124298,54.486019 216.923187,70.843132 
	C224.573013,85.064140 230.140427,100.265800 230.011871,116.890198 
	C229.973206,121.889130 229.874466,126.892838 230.034790,131.886932 
	C230.349091,141.676971 227.558075,150.778549 224.596939,159.960251 
	C218.634109,178.449463 208.400589,194.073975 194.212570,207.201782 
	C185.158752,215.579056 174.899841,222.254517 163.507202,226.823547 
	C154.820969,230.307144 145.835983,233.399490 136.699158,235.288574 
	C129.971695,236.679504 122.779900,235.739380 115.802528,236.022964 
	C95.554932,236.845886 77.178032,230.182281 60.298092,220.203049 
	C40.926910,208.751007 26.430096,192.084976 16.931377,171.564896 
	C7.296763,150.751266 4.480290,128.734116 8.130335,106.157394 
	C10.374725,92.275108 15.033271,79.013634 22.579615,66.988045 
	C30.934698,53.673672 40.601372,41.410152 54.340786,33.293327 
	C63.345222,27.973785 72.922600,23.624071 82.615646,18.698997 
M25.414272,85.809448 
	C23.113903,93.483292 20.607512,101.102554 18.557295,108.842659 
	C14.637615,123.640503 17.454109,138.222153 21.143827,152.527008 
	C22.925316,159.433777 26.025978,166.130936 29.382706,172.471207 
	C34.913216,182.917358 41.887650,192.421371 51.061592,200.069824 
	C62.168076,209.329514 73.909203,217.518234 88.351570,220.764893 
	C96.497482,222.596115 104.600914,225.080170 112.856232,225.854050 
	C125.834404,227.070648 138.401688,224.405121 150.913544,220.466309 
	C161.657578,217.084000 171.335434,211.952957 180.002472,205.281372 
	C200.082260,189.824615 212.588394,169.562439 217.983139,144.481888 
	C221.408951,128.555084 220.471130,113.040894 216.507736,97.795868 
	C214.104019,88.550087 209.532166,79.679504 204.819046,71.265083 
	C196.997543,57.301208 185.520828,46.511299 171.943024,38.158581 
	C161.076706,31.473892 149.192841,27.508211 136.641876,24.709454 
	C117.570389,20.456684 99.251595,23.374947 81.737419,29.973265 
	C65.712006,36.010700 51.554977,45.797291 40.762402,59.646320 
	C34.654488,67.484001 28.558023,75.325630 25.414272,85.809448 
z"/>
<path fill="#FEFFFE" opacity="1.000000" stroke="none" 
	d="
M25.584877,85.459747 
	C28.558023,75.325630 34.654488,67.484001 40.762402,59.646320 
	C51.554977,45.797291 65.712006,36.010700 81.737419,29.973265 
	C99.251595,23.374947 117.570389,20.456684 136.641876,24.709454 
	C149.192841,27.508211 161.076706,31.473892 171.943024,38.158581 
	C185.520828,46.511299 196.997543,57.301208 204.819046,71.265083 
	C209.532166,79.679504 214.104019,88.550087 216.507736,97.795868 
	C220.471130,113.040894 221.408951,128.555084 217.983139,144.481888 
	C212.588394,169.562439 200.082260,189.824615 180.002472,205.281372 
	C171.335434,211.952957 161.657578,217.084000 150.913544,220.466309 
	C138.401688,224.405121 125.834404,227.070648 112.856232,225.854050 
	C104.600914,225.080170 96.497482,222.596115 88.351570,220.764893 
	C73.909203,217.518234 62.168076,209.329514 51.061592,200.069824 
	C41.887650,192.421371 34.913216,182.917358 29.382706,172.471207 
	C26.025978,166.130936 22.925316,159.433777 21.143827,152.527008 
	C17.454109,138.222153 14.637615,123.640503 18.557295,108.842659 
	C20.607512,101.102554 23.113903,93.483292 25.584877,85.459747 
M120.085838,136.585815 
	C114.478806,142.188553 108.871773,147.791290 103.203247,153.455475 
	C102.007256,152.434921 101.341583,151.948853 100.771873,151.368576 
	C90.706375,141.116608 80.722649,130.782837 70.547363,120.641197 
	C67.975563,118.077896 64.582031,115.412590 60.894775,118.183968 
	C55.240856,122.433479 54.333782,127.190254 58.417545,131.679565 
	C66.138657,140.167435 74.216751,148.336777 82.297592,156.488708 
	C86.621948,160.851105 90.773788,165.661179 95.864738,168.926407 
	C105.005112,174.788864 103.519333,176.908356 112.140450,168.178879 
	C125.020203,155.137253 138.098175,142.291504 150.994232,129.265808 
	C163.407333,116.727936 175.735535,104.104927 187.969284,91.392532 
	C189.000458,90.321022 189.840530,88.001892 189.396194,86.749596 
	C186.825851,79.505112 178.746078,77.940331 173.260910,83.420395 
	C155.695984,100.968964 138.142654,118.529137 120.085838,136.585815 
z"/>
<path fill="#B2ECC6" opacity="1.000000" stroke="none" 
	d="
M120.335342,136.335327 
	C138.142654,118.529137 155.695984,100.968964 173.260910,83.420395 
	C178.746078,77.940331 186.825851,79.505112 189.396194,86.749596 
	C189.840530,88.001892 189.000458,90.321022 187.969284,91.392532 
	C175.735535,104.104927 163.407333,116.727936 150.994232,129.265808 
	C138.098175,142.291504 125.020203,155.137253 112.140450,168.178879 
	C103.519333,176.908356 105.005112,174.788864 95.864738,168.926407 
	C90.773788,165.661179 86.621948,160.851105 82.297592,156.488708 
	C74.216751,148.336777 66.138657,140.167435 58.417545,131.679565 
	C54.333782,127.190254 55.240856,122.433479 60.894775,118.183968 
	C64.582031,115.412590 67.975563,118.077896 70.547363,120.641197 
	C80.722649,130.782837 90.706375,141.116608 100.771873,151.368576 
	C101.341583,151.948853 102.007256,152.434921 103.203247,153.455475 
	C108.871773,147.791290 114.478806,142.188553 120.335342,136.335327 
M162.036392,114.536407 
	C168.517776,108.058502 175.024948,101.606010 181.458542,95.080978 
	C182.728821,93.792641 184.699005,92.172089 184.624969,90.797462 
	C184.479340,88.093681 183.523117,85.182655 182.007751,82.969955 
	C181.600006,82.374573 177.309036,83.311844 175.922958,84.681435 
	C153.406967,106.929413 131.071289,129.359894 108.696289,151.750549 
	C103.402016,157.048538 103.062523,157.095871 97.586960,151.665710 
	C88.017838,142.175888 78.398857,132.731384 69.044884,123.032463 
	C66.001190,119.876511 64.120911,119.862389 61.013866,123.015091 
	C57.161823,126.923790 59.929527,129.452545 62.258503,131.819397 
	C73.942284,143.693176 85.738495,155.458450 97.627228,167.127335 
	C102.021179,171.440033 105.335205,171.251373 109.589592,166.999496 
	C126.912971,149.686249 144.223068,132.359711 162.036392,114.536407 
z"/>
<path fill="#25C95D" opacity="1.000000" stroke="none" 
	d="
M161.787231,114.787247 
	C144.223068,132.359711 126.912971,149.686249 109.589592,166.999496 
	C105.335205,171.251373 102.021179,171.440033 97.627228,167.127335 
	C85.738495,155.458450 73.942284,143.693176 62.258503,131.819397 
	C59.929527,129.452545 57.161823,126.923790 61.013866,123.015091 
	C64.120911,119.862389 66.001190,119.876511 69.044884,123.032463 
	C78.398857,132.731384 88.017838,142.175888 97.586960,151.665710 
	C103.062523,157.095871 103.402016,157.048538 108.696289,151.750549 
	C131.071289,129.359894 153.406967,106.929413 175.922958,84.681435 
	C177.309036,83.311844 181.600006,82.374573 182.007751,82.969955 
	C183.523117,85.182655 184.479340,88.093681 184.624969,90.797462 
	C184.699005,92.172089 182.728821,93.792641 181.458542,95.080978 
	C175.024948,101.606010 168.517776,108.058502 161.787231,114.787247 
z"/>
</svg>