<svg version="1.1" id="Layer_1" xmlns="http://www.w3.org/2000/svg" xmlns:xlink="http://www.w3.org/1999/xlink" x="0px" y="0px"
	 width="100%" viewBox="0 0 270 270" enable-background="new 0 0 270 270" xml:space="preserve">
<path fill="#FFFEFE" opacity="1.000000" stroke="none" 
	d="
M1.000000,95.000000 
	C1.000000,63.333332 1.000000,32.166668 1.000000,1.000000 
	C91.000000,1.000000 181.000000,1.000000 271.000000,1.000000 
	C271.000000,91.000000 271.000000,181.000000 271.000000,271.000000 
	C181.000000,271.000000 91.000000,271.000000 1.000000,271.000000 
	C1.000000,212.500000 1.000000,154.000000 1.000000,95.000000 
M118.454819,14.361937 
	C114.360039,13.813459 110.384674,13.610211 107.316589,18.169748 
	C106.619629,18.232882 105.922668,18.296017 104.773697,17.705917 
	C100.040604,15.756691 97.318542,19.508116 93.338860,21.703253 
	C92.897232,21.758518 92.455597,21.813784 91.545494,21.383106 
	C85.732994,24.062672 79.705994,26.368277 74.175896,29.540205 
	C69.756744,32.074924 65.942337,35.663994 61.207706,38.976757 
	C60.842392,39.673210 60.477074,40.369663 59.825619,41.624687 
	C58.893661,42.448879 57.961704,43.273071 56.346397,44.138599 
	C53.619595,46.482773 50.892792,48.826950 47.473557,51.236473 
	C46.285934,52.076176 44.817989,52.696217 43.958504,53.793053 
	C39.919647,58.947281 35.907032,64.133553 32.145172,69.491035 
	C23.727619,81.478973 17.279587,94.345016 15.047554,109.748390 
	C14.529071,114.568169 14.010589,119.387947 13.328533,125.044914 
	C13.525877,126.421875 13.723221,127.798836 13.558577,130.010757 
	C13.683663,135.284897 13.808750,140.559052 13.446632,146.512665 
	C13.453008,147.608246 13.459384,148.703812 13.136292,150.690506 
	C12.375609,159.985748 15.191659,168.599747 18.616173,176.965836 
	C22.272369,185.897934 25.579256,195.175919 30.679810,203.268539 
	C39.341972,217.012009 50.524323,228.654144 63.832355,238.320389 
	C74.832291,246.310165 86.829750,252.502716 99.553627,256.303802 
	C108.800545,259.066193 118.508499,261.147919 128.704895,261.155060 
	C148.328964,261.168854 167.152954,259.470703 185.377975,251.149887 
	C199.855423,244.540024 212.573547,235.892548 223.907547,224.959030 
	C224.581070,224.309311 224.478622,222.855209 225.219666,221.320526 
	C226.440277,220.090164 227.660904,218.859787 229.136734,218.249390 
	C230.036865,217.862839 231.252960,217.723099 231.781525,217.046356 
	C233.887390,214.350159 235.649719,211.384247 237.772858,208.703186 
	C246.080505,198.212387 250.597260,185.784424 255.691315,173.667313 
	C256.222931,172.402771 255.374908,170.558212 255.169724,168.314896 
	C255.254288,167.878479 255.338852,167.442047 256.058868,166.802490 
	C257.042053,164.417892 258.789856,162.062408 258.881958,159.643890 
	C259.404236,145.928650 259.838165,132.192566 259.581146,118.477089 
	C259.514496,114.918655 256.864685,111.408630 255.236328,107.170654 
	C255.183594,106.449905 255.130875,105.729156 255.605469,104.502182 
	C254.398956,100.047539 253.902069,95.229424 251.843826,91.211037 
	C246.990997,81.736595 242.097031,72.144821 235.961792,63.492470 
	C219.801117,40.701504 197.144440,26.574396 171.167648,17.373741 
	C169.995010,16.958408 168.398880,17.738771 166.230530,17.962627 
	C165.748901,18.112860 165.267258,18.263090 164.389801,18.210682 
	C164.389801,18.210682 164.007080,17.984224 163.927002,17.272264 
	C160.494675,13.759608 156.453339,13.207609 151.153717,14.842291 
	C150.079712,14.954754 149.005692,15.067216 147.127319,15.023464 
	C146.063904,15.152822 145.000504,15.282181 143.148499,15.107106 
	C141.465347,14.974390 139.782181,14.841673 137.926056,14.092524 
	C136.584427,14.297984 135.242798,14.503445 133.051804,14.872964 
	C131.056976,15.067550 129.062164,15.262136 126.383720,15.081762 
	C125.611542,15.112704 124.839355,15.143646 123.260529,14.893307 
	C121.847237,14.891087 120.433945,14.888865 118.454819,14.361937 
z"/>
<path fill="#F82558" opacity="1.000000" stroke="none" 
	d="
M13.933836,145.833191 
	C13.808750,140.559052 13.683663,135.284897 13.984571,129.563599 
	C14.930894,128.743820 15.451221,128.371201 16.341003,127.956139 
	C19.818913,126.501541 19.572874,124.384254 17.958702,121.575546 
	C17.631884,119.446831 17.304277,117.721771 16.982632,115.562195 
	C17.024851,113.108765 17.061110,111.089851 17.173824,109.106430 
	C17.250280,109.141930 17.418243,109.156433 17.720278,109.022659 
	C19.502855,105.391647 23.462690,102.558342 20.951305,97.667938 
	C21.051798,96.928154 21.142076,96.509789 21.589106,96.059326 
	C25.120411,95.317947 25.888872,93.681007 23.917809,90.651077 
	C24.218855,89.497070 24.494635,88.670082 25.108847,87.870743 
	C26.276701,87.593323 27.106121,87.288246 28.361206,86.988945 
	C30.205694,86.997025 31.624521,86.999321 33.083313,87.369301 
	C32.452682,89.176376 31.782089,90.615776 30.800688,92.061714 
	C30.369516,92.726379 30.249151,93.384499 30.113804,94.440247 
	C29.572824,96.741074 29.102261,98.661697 28.510864,100.544357 
	C26.391590,107.290878 22.591846,113.581818 23.003601,121.281738 
	C23.026840,121.736465 23.042309,121.918007 23.050766,122.561920 
	C23.019726,130.337830 23.471113,137.691025 22.865082,144.956009 
	C21.845022,157.184296 25.348858,168.454361 29.919237,179.306854 
	C40.705826,204.919876 57.906303,225.008820 82.874016,237.972046 
	C86.357239,239.780533 89.693367,241.872345 92.860474,244.135361 
	C90.408951,244.959641 88.194550,245.481567 85.705872,245.888916 
	C84.617508,245.863647 83.803413,245.952972 82.640228,246.006439 
	C80.870903,245.296600 79.450676,244.622620 78.026566,243.596069 
	C77.668350,241.039703 76.806244,240.238846 74.647751,242.105591 
	C73.918449,241.954254 73.508430,241.834839 73.065811,241.365021 
	C71.900543,240.097610 70.767876,239.180603 69.278702,238.223236 
	C64.585869,234.835922 60.249538,231.488968 55.916817,227.784393 
	C52.236862,223.977478 48.553303,220.528168 44.603088,216.915894 
	C43.484444,215.607559 42.632450,214.462204 41.815834,212.946259 
	C41.139389,212.114349 40.427570,211.653046 39.531448,211.164078 
	C39.347145,211.136414 39.001514,210.996857 39.001907,210.618103 
	C38.305122,209.176163 37.607941,208.113007 36.697746,206.943146 
	C36.218494,206.638412 36.044319,206.378662 35.975830,205.701538 
	C35.345917,204.557388 34.702381,203.768906 33.873596,202.706009 
	C32.764191,201.291534 31.840034,200.151443 31.187328,198.825775 
	C30.957527,197.770569 30.456278,196.900955 29.659195,195.854904 
	C28.573977,193.785904 27.784592,191.893356 27.243980,189.821777 
	C26.648363,188.770767 25.803970,187.898773 24.815029,186.709290 
	C24.423555,185.264481 24.176628,184.137177 24.176224,182.850204 
	C23.928875,182.141281 23.435001,181.591995 22.680553,180.820633 
	C21.937838,179.066849 21.455696,177.535156 21.243202,175.775818 
	C21.095736,172.693253 22.271078,169.128937 17.961267,167.572662 
	C17.534206,164.472580 17.268015,161.736160 17.288364,158.741058 
	C16.361217,154.265991 15.147527,150.049591 13.933836,145.833191 
z"/>
<path fill="#FC9BB2" opacity="1.000000" stroke="none" 
	d="
M39.001511,210.996857 
	C39.001514,210.996857 39.347145,211.136414 39.638893,211.456085 
	C40.547249,212.289474 41.163853,212.803162 41.780457,213.316864 
	C42.632450,214.462204 43.484444,215.607559 44.659203,217.254211 
	C48.625713,221.217682 52.269459,224.679855 55.913204,228.142014 
	C60.249538,231.488968 64.585869,234.835922 69.401886,238.516907 
	C70.953850,239.805771 72.026131,240.760605 73.098419,241.715424 
	C73.508430,241.834839 73.918449,241.954254 74.835320,242.338562 
	C76.238266,243.051865 77.134354,243.500259 78.030449,243.948639 
	C79.450676,244.622620 80.870903,245.296600 82.774742,246.297089 
	C84.164474,247.097351 85.070602,247.571091 86.283585,248.212555 
	C87.717110,248.629715 88.843765,248.879135 90.168442,249.386871 
	C91.927071,250.386444 93.487679,251.127716 95.365303,251.937286 
	C96.112465,252.046234 96.542618,252.086899 97.231255,252.373230 
	C100.313690,253.437698 103.137634,254.256500 106.328293,255.229401 
	C109.124451,255.612488 111.553902,255.841492 114.237686,256.343201 
	C119.016502,257.345123 123.540985,258.074402 128.525330,258.862976 
	C134.299179,258.869202 139.613190,258.816071 145.345352,258.850708 
	C149.848007,257.981689 153.932495,257.024872 158.429337,256.069916 
	C161.350693,255.412674 163.873184,254.800552 166.365997,254.085037 
	C172.250015,252.396149 178.119919,250.658066 184.357971,248.952240 
	C187.926819,247.316986 191.269043,245.885773 194.311249,243.976547 
	C200.566742,240.050751 206.661728,235.869232 213.147537,231.737152 
	C214.375519,230.530518 215.278732,229.379700 216.498154,228.108871 
	C219.455322,225.917694 222.096283,223.846542 224.737259,221.775406 
	C224.478622,222.855209 224.581070,224.309311 223.907547,224.959030 
	C212.573547,235.892548 199.855423,244.540024 185.377975,251.149887 
	C167.152954,259.470703 148.328964,261.168854 128.704895,261.155060 
	C118.508499,261.147919 108.800545,259.066193 99.553627,256.303802 
	C86.829750,252.502716 74.832291,246.310165 63.832355,238.320389 
	C50.524323,228.654144 39.341972,217.012009 30.679810,203.268539 
	C25.579256,195.175919 22.272369,185.897934 18.616173,176.965836 
	C15.191659,168.599747 12.375609,159.985748 13.607164,150.404892 
	C15.052633,153.079437 16.027229,156.039581 17.001823,158.999741 
	C17.268015,161.736160 17.534206,164.472580 17.937622,167.944641 
	C19.041084,171.121323 20.007320,173.562393 20.973557,176.003448 
	C21.455696,177.535156 21.937838,179.066849 22.691139,181.115204 
	C23.284763,182.091187 23.607229,182.550522 23.929699,183.009857 
	C24.176628,184.137177 24.423555,185.264481 24.827404,187.033051 
	C25.654619,188.449799 26.324915,189.225296 26.995209,190.000793 
	C27.784592,191.893356 28.573977,193.785904 29.655685,196.190170 
	C30.270634,197.471710 30.593256,198.241531 30.915878,199.011368 
	C31.840034,200.151443 32.764191,201.291534 33.847061,203.034134 
	C34.657925,204.443497 35.310066,205.250336 35.962208,206.057175 
	C36.044319,206.378662 36.218494,206.638412 36.709938,207.290558 
	C37.623932,208.828751 38.312721,209.912811 39.001511,210.996857 
z"/>
<path fill="#F82759" opacity="1.000000" stroke="none" 
	d="
M224.978455,221.547974 
	C222.096283,223.846542 219.455322,225.917694 216.138031,228.071365 
	C214.582047,229.366898 213.702408,230.579926 212.822784,231.792953 
	C206.661728,235.869232 200.566742,240.050751 194.311249,243.976547 
	C191.269043,245.885773 187.926819,247.316986 184.358231,248.556686 
	C184.834671,243.785294 180.031006,245.949783 179.154541,243.568787 
	C179.937134,242.581985 180.525040,241.822266 181.409790,240.911713 
	C183.126068,240.219284 184.545517,239.677704 186.165680,239.322510 
	C186.913742,239.006851 187.461105,238.504807 188.240112,237.753952 
	C189.965744,236.931549 191.459747,236.357986 193.286713,235.808914 
	C194.468018,234.921555 195.316345,234.009705 196.467133,233.063110 
	C197.162384,232.927002 197.555176,232.825638 198.260223,232.754028 
	C198.992111,232.176651 199.411728,231.569519 199.973022,230.652344 
	C203.509201,227.422455 206.903702,224.502625 210.350342,221.493073 
	C210.402466,221.403336 210.584885,221.304337 210.871796,221.262405 
	C211.880981,220.375671 212.603256,219.530869 213.392670,218.582306 
	C213.459839,218.478531 213.676651,218.359787 213.888428,218.377747 
	C214.385162,218.372375 214.667297,218.330139 215.172272,218.433350 
	C217.474228,218.229172 218.793396,217.583313 216.489624,215.594910 
	C216.487289,215.578674 216.481720,215.550537 216.651367,215.320526 
	C217.099258,214.830902 217.377502,214.571304 217.961929,214.248566 
	C220.217773,211.842300 222.167419,209.499146 224.199524,206.926422 
	C224.281982,206.696854 224.523529,206.273010 224.868439,206.247284 
	C227.486984,203.169144 229.760605,200.116745 232.385086,196.993149 
	C234.493149,196.275711 236.250366,195.629471 238.046036,195.330872 
	C239.443237,197.850082 240.489960,199.763962 237.816147,202.048370 
	C236.651123,203.043732 236.574097,205.312561 235.828156,207.254379 
	C235.095612,208.332809 234.537827,209.159897 233.621628,210.016388 
	C231.829681,212.015610 230.396179,213.985413 228.902863,216.234589 
	C228.855881,216.885773 228.868698,217.257599 228.881516,217.629425 
	C227.660904,218.859787 226.440277,220.090164 224.978455,221.547974 
z"/>
<path fill="#F82256" opacity="1.000000" stroke="none" 
	d="
M33.043350,87.001617 
	C31.624521,86.999321 30.205694,86.997025 28.372078,86.555092 
	C27.819731,85.256821 27.682175,84.398193 27.569260,83.218002 
	C27.738174,82.268845 27.882446,81.641243 28.407637,81.006081 
	C29.679859,79.170845 30.571163,77.343155 31.522512,75.199707 
	C32.343014,73.892830 33.103470,72.901711 34.221542,71.902863 
	C37.084587,70.076317 39.673035,68.301636 38.625603,64.232529 
	C39.851254,62.635052 40.947975,61.330696 42.414993,60.025177 
	C43.420551,59.220654 44.055817,58.417290 44.732994,57.444355 
	C44.774902,57.274780 44.952206,56.973766 45.302193,56.962471 
	C49.444698,52.666538 53.237221,48.381901 57.029747,44.097263 
	C57.961704,43.273071 58.893661,42.448879 60.351547,41.314697 
	C65.485878,40.121876 69.808914,38.813602 71.682999,33.753693 
	C71.728195,33.720398 71.798019,33.632477 72.180176,33.721619 
	C75.041656,32.207790 77.520996,30.604816 80.298058,28.948030 
	C80.984291,28.786568 81.372795,28.678917 82.122467,28.700485 
	C83.375984,27.946716 84.268333,27.063726 85.442551,25.969280 
	C87.145401,25.581217 88.566376,25.404610 90.049286,25.542181 
	C91.057587,25.539112 92.003944,25.221867 93.084862,24.622379 
	C93.490585,23.778536 93.761757,23.216932 94.395966,22.654469 
	C95.483788,22.602779 96.208580,22.551952 96.949554,22.873928 
	C96.978241,23.493324 96.990746,23.739918 97.037460,24.301029 
	C97.714394,25.409878 98.357109,26.204203 98.863144,27.291010 
	C98.139503,28.690149 97.552567,29.796810 96.565765,30.954268 
	C94.561646,31.094784 92.957367,31.184502 90.977432,31.224964 
	C90.070099,32.121464 89.538437,33.067219 88.634842,34.096748 
	C79.439873,36.313175 72.328529,41.808533 65.692017,47.331894 
	C58.425549,53.379555 52.499767,61.038094 45.658905,67.994370 
	C44.914490,68.673080 44.500877,69.352028 44.027180,70.370216 
	C40.325848,76.140175 36.684601,81.570900 33.043350,87.001617 
z"/>
<path fill="#F81E53" opacity="1.000000" stroke="none" 
	d="
M138.099030,14.708957 
	C139.782181,14.841673 141.465347,14.974390 143.553467,15.621042 
	C146.207733,19.860174 151.009766,20.964088 156.354233,18.916550 
	C157.810837,18.677900 158.907349,18.424511 160.407562,18.188908 
	C161.876526,18.132538 162.941803,18.058382 164.007080,17.984226 
	C164.007080,17.984224 164.389801,18.210682 164.572968,18.584064 
	C164.832184,19.314371 164.908218,19.671299 164.937698,20.416758 
	C163.253662,21.539846 161.675583,22.496351 159.964111,22.954346 
	C157.680847,23.565359 155.293900,23.789032 152.486145,24.171215 
	C141.030594,24.168709 130.040405,24.174055 118.784042,23.850716 
	C116.751228,23.351152 114.933670,22.832380 113.228546,23.081900 
	C109.689613,23.599770 107.425812,22.247299 105.828262,18.915489 
	C105.526115,18.575222 105.375916,18.467188 105.225708,18.359152 
	C105.922668,18.296017 106.619629,18.232882 108.038307,18.207664 
	C109.839516,18.221542 110.919014,18.197504 112.244644,18.421303 
	C113.662781,18.746748 114.834793,18.824358 116.256157,19.206570 
	C120.712151,19.946795 125.297073,21.367849 127.067337,15.456722 
	C129.062164,15.262136 131.056976,15.067550 133.873657,14.973801 
	C135.830002,14.952744 136.964523,14.830851 138.099030,14.708957 
z"/>
<path fill="#FDBCCC" opacity="1.000000" stroke="none" 
	d="
M167.000000,17.962215 
	C168.398880,17.738771 169.995010,16.958408 171.167648,17.373741 
	C197.144440,26.574396 219.801117,40.701504 235.961792,63.492470 
	C242.097031,72.144821 246.990997,81.736595 251.843826,91.211037 
	C253.902069,95.229424 254.398956,100.047539 255.041977,104.560577 
	C253.738647,103.138130 252.688263,101.732635 252.307846,100.164597 
	C249.096603,86.927849 242.188187,75.525314 234.557007,64.529640 
	C232.556381,61.646950 229.638519,59.400829 227.022644,56.551216 
	C223.310120,52.788334 219.716827,49.336605 216.070831,45.547050 
	C212.903671,42.556602 210.087006,39.396202 206.612106,37.358150 
	C199.599701,33.245342 192.229507,29.742554 184.641632,25.946802 
	C178.546677,23.901453 172.817017,21.897455 167.060974,19.572296 
	C167.023056,18.821493 167.011520,18.391855 167.000000,17.962215 
z"/>
<path fill="#FDB6C7" opacity="1.000000" stroke="none" 
	d="
M28.026718,81.013634 
	C27.882446,81.641243 27.738174,82.268845 27.271294,83.371445 
	C26.222595,85.178650 25.496506,86.510872 24.770414,87.843086 
	C24.494635,88.670082 24.218855,89.497070 23.648140,90.837685 
	C22.646255,92.931343 21.939306,94.511391 21.232357,96.091431 
	C21.142076,96.509789 21.051798,96.928154 20.691153,97.914932 
	C19.419939,102.041046 18.419090,105.598740 17.418243,109.156433 
	C17.418243,109.156433 17.250280,109.141930 16.875076,109.091217 
	C16.104994,109.058571 15.710116,109.076645 15.315238,109.094719 
	C17.279587,94.345016 23.727619,81.478973 32.145172,69.491035 
	C35.907032,64.133553 39.919647,58.947281 43.958504,53.793053 
	C44.817989,52.696217 46.285934,52.076176 47.774311,51.544296 
	C47.034115,53.559338 45.993160,55.266552 44.952209,56.973770 
	C44.952206,56.973766 44.774902,57.274780 44.433430,57.536098 
	C43.409538,58.540394 42.727119,59.283367 42.044701,60.026344 
	C40.947975,61.330696 39.851254,62.635052 38.350517,64.408142 
	C36.585644,67.221458 35.224785,69.566025 33.863930,71.910591 
	C33.103470,72.901711 32.343014,73.892830 31.255878,75.377457 
	C29.961706,77.585182 28.994213,79.299408 28.026718,81.013634 
z"/>
<path fill="#FDBCCC" opacity="1.000000" stroke="none" 
	d="
M255.401398,107.876373 
	C256.864685,111.408630 259.514496,114.918655 259.581146,118.477089 
	C259.838165,132.192566 259.404236,145.928650 258.881958,159.643890 
	C258.789856,162.062408 257.042053,164.417892 255.453979,166.886215 
	C254.657974,166.973251 254.466873,166.976578 254.298203,166.644348 
	C254.496338,165.201767 254.672028,164.094711 255.152679,162.754852 
	C256.213104,157.628296 256.968567,152.734558 257.778076,147.414246 
	C257.772156,144.988434 257.712158,142.989197 257.774750,140.559586 
	C257.810486,137.756149 257.723633,135.383087 257.753967,132.615921 
	C257.843323,130.853256 257.815460,129.484695 257.891418,127.671432 
	C256.954254,122.155861 255.913254,117.084999 254.878754,111.649605 
	C254.805145,110.562050 254.725052,109.839027 254.826080,108.801224 
	C255.138596,108.283073 255.270004,108.079720 255.401398,107.876373 
z"/>
<path fill="#FA6387" opacity="1.000000" stroke="none" 
	d="
M255.318863,107.523514 
	C255.270004,108.079720 255.138596,108.283073 254.619751,108.662483 
	C253.837601,108.532791 253.442886,108.227043 253.004272,107.554085 
	C250.876068,101.223915 249.504974,94.877701 246.551529,89.381844 
	C241.235886,79.490417 236.742508,68.989304 228.567230,60.836151 
	C227.666748,59.938084 227.596954,58.207069 227.141891,56.862373 
	C229.638519,59.400829 232.556381,61.646950 234.557007,64.529640 
	C242.188187,75.525314 249.096603,86.927849 252.307846,100.164597 
	C252.688263,101.732635 253.738647,103.138130 254.778320,104.813690 
	C255.130875,105.729156 255.183594,106.449905 255.318863,107.523514 
z"/>
<path fill="#FDBCCC" opacity="1.000000" stroke="none" 
	d="
M229.009125,217.939407 
	C228.868698,217.257599 228.855881,216.885773 229.227158,216.143799 
	C231.067520,213.844772 232.523788,211.915878 233.980042,209.986969 
	C234.537827,209.159897 235.095612,208.332809 236.148895,207.134460 
	C239.223007,202.620667 242.231613,198.678253 244.275391,194.286835 
	C247.062256,188.298691 249.113617,181.968231 251.592529,175.490540 
	C251.736908,174.779755 251.769073,174.362961 252.113754,173.802094 
	C253.339844,172.099594 254.253418,170.541183 255.166992,168.982773 
	C255.374908,170.558212 256.222931,172.402771 255.691315,173.667313 
	C250.597260,185.784424 246.080505,198.212387 237.772858,208.703186 
	C235.649719,211.384247 233.887390,214.350159 231.781525,217.046356 
	C231.252960,217.723099 230.036865,217.862839 229.009125,217.939407 
z"/>
<path fill="#FDBCCC" opacity="1.000000" stroke="none" 
	d="
M89.987358,25.228003 
	C88.566376,25.404610 87.145401,25.581217 85.106079,25.918388 
	C83.578926,26.909725 82.670113,27.740496 81.761299,28.571266 
	C81.372795,28.678917 80.984291,28.786568 80.095062,28.749063 
	C76.995567,30.280098 74.396797,31.956287 71.798019,33.632477 
	C71.798019,33.632477 71.728195,33.720398 71.358307,33.827187 
	C67.945457,35.551010 64.902481,37.168049 61.859512,38.785088 
	C65.942337,35.663994 69.756744,32.074924 74.175896,29.540205 
	C79.705994,26.368277 85.732994,24.062672 91.681458,21.916611 
	C91.484329,23.179846 91.151245,23.909573 90.592651,24.761341 
	C90.240555,24.998253 90.113960,25.113127 89.987358,25.228003 
z"/>
<path fill="#FC9BB2" opacity="1.000000" stroke="none" 
	d="
M15.181396,109.421555 
	C15.710116,109.076645 16.104994,109.058571 16.798620,109.055717 
	C17.061110,111.089851 17.024851,113.108765 16.705172,115.798126 
	C15.445200,119.048294 14.468651,121.628006 13.492104,124.207726 
	C14.010589,119.387947 14.529071,114.568169 15.181396,109.421555 
z"/>
<path fill="#F94F78" opacity="1.000000" stroke="none" 
	d="
M45.302193,56.962471 
	C45.993160,55.266552 47.034115,53.559338 48.120529,51.511627 
	C50.892792,48.826950 53.619595,46.482773 56.688072,44.117931 
	C53.237221,48.381901 49.444698,52.666538 45.302193,56.962471 
z"/>
<path fill="#F93A68" opacity="1.000000" stroke="none" 
	d="
M155.994156,18.901810 
	C151.009766,20.964088 146.207733,19.860174 143.947754,15.773258 
	C145.000504,15.282181 146.063904,15.152822 147.613190,15.444715 
	C150.730759,16.877914 153.362457,17.889864 155.994156,18.901810 
z"/>
<path fill="#F94F78" opacity="1.000000" stroke="none" 
	d="
M13.410318,124.626320 
	C14.468651,121.628006 15.445200,119.048294 16.699211,116.232651 
	C17.304277,117.721771 17.631884,119.446831 17.693100,121.807472 
	C16.941656,124.294899 16.456602,126.146744 15.971548,127.998581 
	C15.451221,128.371201 14.930894,128.743820 14.165565,129.146118 
	C13.723221,127.798836 13.525877,126.421875 13.410318,124.626320 
z"/>
<path fill="#F94F78" opacity="1.000000" stroke="none" 
	d="
M17.288364,158.741058 
	C16.027229,156.039581 15.052633,153.079437 13.771898,149.959335 
	C13.459384,148.703812 13.453008,147.608246 13.690234,146.172928 
	C15.147527,150.049591 16.361217,154.265991 17.288364,158.741058 
z"/>
<path fill="#FDBCCC" opacity="1.000000" stroke="none" 
	d="
M104.999702,18.032536 
	C105.375916,18.467188 105.526115,18.575222 105.363129,18.892914 
	C104.746033,19.132648 104.442131,19.162724 103.781334,19.120232 
	C102.185204,19.873837 100.945984,20.700008 99.411942,21.594093 
	C98.389198,21.941715 97.661285,22.221420 96.933372,22.501125 
	C96.208580,22.551952 95.483788,22.602779 94.397964,22.369101 
	C94.018127,21.894215 93.999313,21.703835 93.980507,21.513456 
	C97.318542,19.508116 100.040604,15.756691 104.999702,18.032536 
z"/>
<path fill="#F93A68" opacity="1.000000" stroke="none" 
	d="
M126.725525,15.269243 
	C125.297073,21.367849 120.712151,19.946795 116.503433,18.945076 
	C119.023285,17.310848 121.545235,16.242720 124.067177,15.174589 
	C124.839355,15.143646 125.611542,15.112704 126.725525,15.269243 
z"/>
<path fill="#FDBCCC" opacity="1.000000" stroke="none" 
	d="
M163.967041,17.628246 
	C162.941803,18.058382 161.876526,18.132538 160.209106,17.872213 
	C157.060760,16.629288 154.514557,15.720841 151.968353,14.812395 
	C156.453339,13.207609 160.494675,13.759608 163.967041,17.628246 
z"/>
<path fill="#FB7696" opacity="1.000000" stroke="none" 
	d="
M61.533607,38.880920 
	C64.902481,37.168049 67.945457,35.551010 71.313110,33.860481 
	C69.808914,38.813602 65.485878,40.121876 60.494614,41.035416 
	C60.477074,40.369663 60.842392,39.673210 61.533607,38.880920 
z"/>
<path fill="#FDBCCC" opacity="1.000000" stroke="none" 
	d="
M111.998505,18.173466 
	C110.919014,18.197504 109.839516,18.221542 108.375877,18.113487 
	C110.384674,13.610211 114.360039,13.813459 118.519775,14.919146 
	C116.389320,16.375391 114.193916,17.274429 111.998505,18.173466 
z"/>
<path fill="#FB7696" opacity="1.000000" stroke="none" 
	d="
M112.244644,18.421303 
	C114.193916,17.274429 116.389320,16.375391 118.802689,15.181499 
	C120.433945,14.888865 121.847237,14.891087 123.663849,15.033949 
	C121.545235,16.242720 119.023285,17.310848 116.254074,18.640471 
	C114.834793,18.824358 113.662781,18.746748 112.244644,18.421303 
z"/>
<path fill="#FB7696" opacity="1.000000" stroke="none" 
	d="
M151.561035,14.827343 
	C154.514557,15.720841 157.060760,16.629288 159.805420,17.854427 
	C158.907349,18.424511 157.810837,18.677900 156.354233,18.916550 
	C153.362457,17.889864 150.730759,16.877914 148.015381,15.522822 
	C149.005692,15.067216 150.079712,14.954754 151.561035,14.827343 
z"/>
<path fill="#FA6387" opacity="1.000000" stroke="none" 
	d="
M255.168350,168.648834 
	C254.253418,170.541183 253.339844,172.099594 251.864594,173.568939 
	C251.237091,172.328934 251.171280,171.178009 251.381165,169.883621 
	C252.117828,168.862610 252.578766,167.985031 253.347321,167.061966 
	C253.861877,167.004257 254.068817,166.992065 254.275757,166.979889 
	C254.466873,166.976578 254.657974,166.973251 255.136261,166.987793 
	C255.338852,167.442047 255.254288,167.878479 255.168350,168.648834 
z"/>
<path fill="#FDBCCC" opacity="1.000000" stroke="none" 
	d="
M138.012543,14.400741 
	C136.964523,14.830851 135.830002,14.952744 134.298340,14.891771 
	C135.242798,14.503445 136.584427,14.297984 138.012543,14.400741 
z"/>
<path fill="#FB7696" opacity="1.000000" stroke="none" 
	d="
M93.659683,21.608355 
	C93.999313,21.703835 94.018127,21.894215 94.034935,22.369961 
	C93.761757,23.216932 93.490585,23.778536 92.724045,24.627712 
	C91.758499,24.823292 91.288338,24.731297 90.818169,24.639301 
	C91.151245,23.909573 91.484329,23.179846 91.915695,22.159584 
	C92.455597,21.813784 92.897232,21.758518 93.659683,21.608355 
z"/>
<path fill="#FB7696" opacity="1.000000" stroke="none" 
	d="
M166.615265,17.962421 
	C167.011520,18.391855 167.023056,18.821493 166.713211,19.629951 
	C165.922638,20.015255 165.453461,20.021740 164.984268,20.028225 
	C164.908218,19.671299 164.832184,19.314371 164.770874,18.685383 
	C165.267258,18.263090 165.748901,18.112860 166.615265,17.962421 
z"/>
<path fill="#FB7F9D" opacity="1.000000" stroke="none" 
	d="
M119.050209,24.179405 
	C130.040405,24.174055 141.030594,24.168709 152.772949,24.411163 
	C156.665726,25.480547 159.806366,26.302130 163.311493,27.265423 
	C165.778015,27.635603 167.880020,27.864075 170.148880,28.330620 
	C170.861130,28.739176 171.406509,28.909660 172.181671,29.365259 
	C188.080246,35.138134 202.340683,42.943474 214.159317,55.253227 
	C215.531662,56.686157 216.791870,57.817501 218.196411,59.219505 
	C219.232101,60.322441 220.123444,61.154713 221.040985,62.319077 
	C221.751572,63.979206 222.435959,65.307251 222.786438,66.676483 
	C222.141479,66.608299 221.718948,66.593239 221.535172,66.376099 
	C207.283371,49.537636 189.854126,37.393852 168.475143,31.605879 
	C159.099319,29.067551 149.451416,26.705486 139.816544,26.137094 
	C123.256218,25.160149 107.412895,29.268663 92.031471,35.568722 
	C74.728577,42.655785 60.327530,53.647606 49.002186,68.140762 
	C37.407871,82.978134 30.339893,99.976059 26.589155,118.774643 
	C22.585855,138.839050 25.848986,157.778488 32.036697,176.399872 
	C34.842567,184.843887 40.300858,192.456696 44.899490,200.243683 
	C52.827995,213.669174 64.385666,223.616104 77.418274,231.658844 
	C89.651596,239.208359 102.943596,244.099869 117.369652,246.522003 
	C129.511963,248.560715 141.269394,249.873337 153.309250,246.497650 
	C156.363342,245.641357 159.781967,246.085220 162.792068,246.220673 
	C160.806107,247.023468 159.035080,247.463425 157.322464,248.068649 
	C154.851746,248.941803 152.423401,249.934906 149.511368,250.917068 
	C142.597855,250.984314 136.120605,251.406967 129.709961,250.931473 
	C122.740433,250.414520 115.785988,249.308151 108.913239,247.996307 
	C103.571091,246.976654 98.364456,245.247070 93.097588,243.833008 
	C89.693367,241.872345 86.357239,239.780533 82.874016,237.972046 
	C57.906303,225.008820 40.705826,204.919876 29.919237,179.306854 
	C25.348858,168.454361 21.845022,157.184296 22.865082,144.956009 
	C23.471113,137.691025 23.019726,130.337830 23.231529,122.457428 
	C23.278145,121.596558 23.136988,121.302559 22.995831,121.008553 
	C22.591846,113.581818 26.391590,107.290878 28.510864,100.544357 
	C29.102261,98.661697 29.572824,96.741074 30.343159,94.263451 
	C30.762163,93.144409 30.936831,92.599792 31.111498,92.055168 
	C31.782089,90.615776 32.452682,89.176376 33.083313,87.369301 
	C36.684601,81.570900 40.325848,76.140175 44.286209,70.245033 
	C45.066784,69.185280 45.528248,68.589943 45.989708,67.994606 
	C52.499767,61.038094 58.425549,53.379555 65.692017,47.331894 
	C72.328529,41.808533 79.439873,36.313175 88.932938,33.987015 
	C90.186340,32.953747 90.769714,32.113979 91.353088,31.274216 
	C92.957367,31.184502 94.561646,31.094784 96.905457,30.963982 
	C99.103539,29.979506 100.562088,29.036116 102.424500,28.077953 
	C104.902786,27.748951 106.977219,27.434721 109.428490,27.082561 
	C112.886963,26.089556 115.968582,25.134481 119.050209,24.179405 
z"/>
<path fill="#F82154" opacity="1.000000" stroke="none" 
	d="
M92.860474,244.135361 
	C98.364456,245.247070 103.571091,246.976654 108.913239,247.996307 
	C115.785988,249.308151 122.740433,250.414520 129.709961,250.931473 
	C136.120605,251.406967 142.597855,250.984314 149.957367,250.965332 
	C157.530945,249.892883 164.196381,248.832626 170.848862,247.696503 
	C171.426163,247.597885 171.878433,246.912415 172.456635,246.647980 
	C174.609039,245.663727 176.789764,244.741425 178.959854,243.795868 
	C180.031006,245.949783 184.834671,243.785294 183.995789,248.544312 
	C178.119919,250.658066 172.250015,252.396149 166.365997,254.085037 
	C163.873184,254.800552 161.350693,255.412674 158.159119,255.760544 
	C152.869843,254.949631 148.010483,253.493134 144.927185,258.762939 
	C139.613190,258.816071 134.299179,258.869202 128.451111,258.497559 
	C125.697289,254.635712 119.792786,253.787231 113.983353,256.070496 
	C111.553902,255.841492 109.124451,255.612488 106.331856,254.837494 
	C103.773003,250.232254 100.591293,250.271942 96.972763,252.127563 
	C96.542618,252.086899 96.112465,252.046234 95.310471,251.589081 
	C93.969193,248.822357 92.972351,246.538712 89.970428,249.128555 
	C88.843765,248.879135 87.717110,248.629715 86.298828,247.872070 
	C85.998184,246.910416 85.989159,246.456955 85.980141,246.003510 
	C88.194550,245.481567 90.408951,244.959641 92.860474,244.135361 
z"/>
<path fill="#F9426E" opacity="1.000000" stroke="none" 
	d="
M55.916809,227.784393 
	C52.269459,224.679855 48.625713,221.217682 44.925858,217.417206 
	C48.553303,220.528168 52.236862,223.977478 55.916809,227.784393 
z"/>
<path fill="#F94F78" opacity="1.000000" stroke="none" 
	d="
M17.720278,109.022659 
	C18.419090,105.598740 19.419939,102.041046 20.680941,98.236359 
	C23.462690,102.558342 19.502855,105.391647 17.720278,109.022659 
z"/>
<path fill="#F94F78" opacity="1.000000" stroke="none" 
	d="
M21.243202,175.775818 
	C20.007320,173.562393 19.041084,171.121323 18.098492,168.308289 
	C22.271078,169.128937 21.095736,172.693253 21.243202,175.775818 
z"/>
<path fill="#F82759" opacity="1.000000" stroke="none" 
	d="
M16.341003,127.956139 
	C16.456602,126.146744 16.941656,124.294899 17.692310,122.211136 
	C19.572874,124.384254 19.818913,126.501541 16.341003,127.956139 
z"/>
<path fill="#F94F78" opacity="1.000000" stroke="none" 
	d="
M21.589104,96.059326 
	C21.939306,94.511391 22.646255,92.931343 23.622875,91.164703 
	C25.888872,93.681007 25.120411,95.317947 21.589104,96.059326 
z"/>
<path fill="#F94F78" opacity="1.000000" stroke="none" 
	d="
M25.108847,87.870743 
	C25.496506,86.510872 26.222595,85.178650 27.246651,83.692993 
	C27.682175,84.398193 27.819731,85.256821 27.946413,86.549309 
	C27.106121,87.288246 26.276701,87.593323 25.108847,87.870743 
z"/>
<path fill="#F9426E" opacity="1.000000" stroke="none" 
	d="
M73.065811,241.365021 
	C72.026131,240.760605 70.953850,239.805771 69.758392,238.557266 
	C70.767876,239.180603 71.900543,240.097610 73.065811,241.365021 
z"/>
<path fill="#F94F78" opacity="1.000000" stroke="none" 
	d="
M27.243982,189.821777 
	C26.324915,189.225296 25.654619,188.449799 24.971951,187.350540 
	C25.803970,187.898773 26.648363,188.770767 27.243982,189.821777 
z"/>
<path fill="#F9426E" opacity="1.000000" stroke="none" 
	d="
M39.001907,210.618103 
	C38.312721,209.912811 37.623932,208.828751 36.922951,207.397278 
	C37.607941,208.113007 38.305122,209.176163 39.001907,210.618103 
z"/>
<path fill="#F9426E" opacity="1.000000" stroke="none" 
	d="
M78.026566,243.596069 
	C77.134354,243.500259 76.238266,243.051865 75.154617,242.370483 
	C76.806244,240.238846 77.668350,241.039703 78.026566,243.596069 
z"/>
<path fill="#F9426E" opacity="1.000000" stroke="none" 
	d="
M85.705872,245.888916 
	C85.989159,246.456955 85.998184,246.910416 85.991959,247.704361 
	C85.070602,247.571091 84.164474,247.097351 83.123840,246.332947 
	C83.803413,245.952972 84.617508,245.863647 85.705872,245.888916 
z"/>
<path fill="#F94F78" opacity="1.000000" stroke="none" 
	d="
M31.187328,198.825775 
	C30.593256,198.241531 30.270634,197.471710 29.951519,196.366608 
	C30.456278,196.900955 30.957527,197.770569 31.187328,198.825775 
z"/>
<path fill="#F9426E" opacity="1.000000" stroke="none" 
	d="
M35.975830,205.701538 
	C35.310066,205.250336 34.657925,204.443497 34.032310,203.308533 
	C34.702381,203.768906 35.345917,204.557388 35.975830,205.701538 
z"/>
<path fill="#F83363" opacity="1.000000" stroke="none" 
	d="
M30.800690,92.061714 
	C30.936831,92.599792 30.762163,93.144409 30.358143,93.865829 
	C30.249151,93.384499 30.369516,92.726379 30.800690,92.061714 
z"/>
<path fill="#F94F78" opacity="1.000000" stroke="none" 
	d="
M24.176222,182.850204 
	C23.607229,182.550522 23.284763,182.091187 22.951714,181.337280 
	C23.435001,181.591995 23.928875,182.141281 24.176222,182.850204 
z"/>
<path fill="#F9426E" opacity="1.000000" stroke="none" 
	d="
M41.815834,212.946259 
	C41.163853,212.803162 40.547249,212.289474 39.823196,211.483765 
	C40.427570,211.653046 41.139389,212.114349 41.815834,212.946259 
z"/>
<path fill="#F83363" opacity="1.000000" stroke="none" 
	d="
M23.003601,121.281738 
	C23.136988,121.302559 23.278145,121.596558 23.238539,121.995056 
	C23.042309,121.918007 23.026840,121.736465 23.003601,121.281738 
z"/>
<path fill="#F9426E" opacity="1.000000" stroke="none" 
	d="
M114.237686,256.343201 
	C119.792786,253.787231 125.697289,254.635712 127.991257,258.438232 
	C123.540985,258.074402 119.016502,257.345123 114.237686,256.343201 
z"/>
<path fill="#F9426E" opacity="1.000000" stroke="none" 
	d="
M145.345352,258.850708 
	C148.010483,253.493134 152.869843,254.949631 157.746765,255.758682 
	C153.932495,257.024872 149.848007,257.981689 145.345352,258.850708 
z"/>
<path fill="#F9426E" opacity="1.000000" stroke="none" 
	d="
M97.231255,252.373230 
	C100.591293,250.271942 103.773003,250.232254 105.965149,254.683411 
	C103.137634,254.256500 100.313690,253.437698 97.231255,252.373230 
z"/>
<path fill="#F9426E" opacity="1.000000" stroke="none" 
	d="
M90.168442,249.386871 
	C92.972351,246.538712 93.969193,248.822357 94.993454,251.520798 
	C93.487679,251.127716 91.927071,250.386444 90.168442,249.386871 
z"/>
<path fill="#FA5F84" opacity="1.000000" stroke="none" 
	d="
M213.147552,231.737152 
	C213.702408,230.579926 214.582047,229.366898 215.821808,228.191391 
	C215.278732,229.379700 214.375519,230.530518 213.147552,231.737152 
z"/>
<path fill="#FFFDFD" opacity="1.000000" stroke="none" 
	d="
M163.033096,245.931671 
	C159.781967,246.085220 156.363342,245.641357 153.309250,246.497650 
	C141.269394,249.873337 129.511963,248.560715 117.369652,246.522003 
	C102.943596,244.099869 89.651596,239.208359 77.418274,231.658844 
	C64.385666,223.616104 52.827995,213.669174 44.899490,200.243683 
	C40.300858,192.456696 34.842567,184.843887 32.036697,176.399872 
	C25.848986,157.778488 22.585855,138.839050 26.589155,118.774643 
	C30.339893,99.976059 37.407871,82.978134 49.002186,68.140762 
	C60.327530,53.647606 74.728577,42.655785 92.031471,35.568722 
	C107.412895,29.268663 123.256218,25.160149 139.816544,26.137094 
	C149.451416,26.705486 159.099319,29.067551 168.475143,31.605879 
	C189.854126,37.393852 207.283371,49.537636 221.535172,66.376099 
	C221.718948,66.593239 222.141479,66.608299 222.808624,66.756927 
	C223.164688,66.796165 223.325668,66.826210 223.285248,67.185410 
	C223.932190,68.848450 224.495773,70.237587 225.326355,71.442696 
	C232.349319,81.632271 238.687057,92.128998 241.623398,104.369118 
	C242.045044,106.126671 243.706650,107.586761 244.817108,109.538338 
	C244.950241,110.591896 245.060669,111.291634 244.866058,112.229584 
	C245.713882,116.971901 246.866760,121.476006 248.015839,126.412437 
	C248.091522,128.571121 248.171021,130.297470 247.934753,132.278366 
	C247.827499,136.012955 248.036011,139.492996 248.199310,143.402039 
	C248.105621,145.556976 248.057159,147.282913 247.650238,149.063660 
	C246.573853,153.754150 245.855881,158.389816 245.068115,163.369385 
	C244.924789,164.411026 244.851227,165.108765 244.459198,165.921478 
	C243.292953,168.365494 242.445190,170.694519 241.431000,173.336685 
	C241.263199,174.117096 241.261826,174.584366 240.988693,175.268250 
	C236.207748,183.709320 231.665726,191.916061 227.213547,200.171249 
	C226.161743,202.121506 225.412155,204.234756 224.523529,206.273010 
	C224.523529,206.273010 224.281982,206.696854 223.851608,206.905533 
	C221.499405,209.513367 219.577560,211.912537 217.655731,214.311691 
	C217.377502,214.571304 217.099258,214.830902 216.290009,215.201813 
	C215.064865,216.328674 214.370773,217.344238 213.676666,218.359802 
	C213.676651,218.359787 213.459839,218.478531 213.060455,218.419312 
	C211.969009,219.341522 211.276947,220.322922 210.584885,221.304337 
	C210.584885,221.304337 210.402466,221.403336 210.011490,221.353226 
	C203.240814,225.552048 196.973419,229.983948 190.445557,233.991547 
	C185.299484,237.150833 179.832611,239.787598 174.266052,242.637665 
	C173.694412,242.625183 173.374344,242.683304 172.783005,242.607910 
	C170.174240,243.535706 167.846146,244.648880 165.206146,245.726822 
	C164.273849,245.771622 163.653473,245.851639 163.033096,245.931671 
M89.712318,170.577576 
	C88.421150,171.999771 87.129982,173.421967 85.161064,175.065033 
	C85.037506,176.725815 84.236618,178.755096 84.905563,179.984726 
	C88.100807,185.858124 93.357536,188.299240 98.861328,182.650818 
	C109.206345,172.033936 119.837929,161.696793 130.233612,151.128494 
	C133.243073,148.069061 135.423325,147.523071 138.782043,151.038101 
	C148.675934,161.392471 158.947922,171.385895 169.086319,181.506180 
	C173.536713,185.948669 178.109711,186.209549 182.066772,182.297897 
	C186.041077,178.369232 185.755539,175.386093 180.837143,170.455597 
	C170.484970,160.077988 160.189697,149.641266 149.689957,139.414734 
	C146.761902,136.562881 146.561691,134.653564 149.604065,131.699112 
	C160.118713,121.488365 170.435272,111.071709 180.712204,100.620331 
	C182.135117,99.173271 183.457489,97.207756 183.872513,95.277199 
	C184.718613,91.341339 182.554047,88.572296 179.115997,86.859001 
	C175.454865,85.034538 172.360870,86.248199 169.653915,88.954620 
	C159.523560,99.082939 149.394745,109.212822 139.268112,119.344872 
	C134.502670,124.112862 134.505508,124.115715 129.909195,119.519379 
	C122.371094,111.981247 114.859665,104.416161 107.282860,96.917130 
	C103.859123,93.528542 100.322540,90.252983 96.805168,86.960312 
	C93.921700,84.261024 91.162834,84.916481 88.367142,87.242386 
	C83.068138,91.650925 82.823357,95.211845 87.729225,100.138199 
	C98.190033,110.642677 108.583603,121.218132 119.236992,131.524414 
	C122.464088,134.646332 122.230911,136.616776 119.131973,139.597748 
	C110.250229,148.141464 101.603836,156.931671 92.956871,165.715485 
	C91.769791,166.921356 91.104660,168.641037 89.712318,170.577576 
z"/>
<path fill="#FA6387" opacity="1.000000" stroke="none" 
	d="
M251.480316,175.784546 
	C249.113617,181.968231 247.062256,188.298691 244.275391,194.286835 
	C242.231613,198.678253 239.223007,202.620667 236.323669,206.883118 
	C236.574097,205.312561 236.651123,203.043732 237.816147,202.048370 
	C240.489960,199.763962 239.443237,197.850082 238.042450,195.345642 
	C238.000412,195.012787 237.969894,195.013885 238.354736,195.012207 
	C240.070862,194.172577 242.027740,193.641190 242.616547,192.439484 
	C244.411682,188.775696 245.464401,184.749695 247.238968,181.073654 
	C248.196396,179.090317 250.037766,177.533691 251.480316,175.784546 
z"/>
<path fill="#FB7F9D" opacity="1.000000" stroke="none" 
	d="
M174.508224,242.656433 
	C179.832611,239.787598 185.299484,237.150833 190.445557,233.991547 
	C196.973419,229.983948 203.240814,225.552048 209.959366,221.442963 
	C206.903702,224.502625 203.509201,227.422455 199.691132,230.701141 
	C198.827698,231.614746 198.387833,232.169510 197.947968,232.724274 
	C197.555176,232.825638 197.162384,232.927002 196.119492,233.057343 
	C194.630844,233.985703 193.792297,234.885056 192.953751,235.784424 
	C191.459747,236.357986 189.965744,236.931549 187.927032,237.775177 
	C186.909882,238.408859 186.437424,238.772491 185.964966,239.136108 
	C184.545517,239.677704 183.126068,240.219284 181.029144,240.923920 
	C178.403854,241.610123 176.456039,242.133286 174.508224,242.656433 
z"/>
<path fill="#FB7F9D" opacity="1.000000" stroke="none" 
	d="
M224.868454,206.247284 
	C225.412155,204.234756 226.161743,202.121506 227.213547,200.171249 
	C231.665726,191.916061 236.207748,183.709320 241.256134,175.263611 
	C241.972900,175.062820 242.150513,175.083298 242.268082,175.410309 
	C242.012558,177.126587 241.817062,178.536362 241.321899,180.038177 
	C240.364731,181.462570 239.707184,182.794907 238.833374,184.350464 
	C238.423981,185.381836 238.230865,186.190018 237.757538,187.186371 
	C235.662979,190.604477 233.848602,193.834412 232.034225,197.064362 
	C229.760605,200.116745 227.486984,203.169144 224.868454,206.247284 
z"/>
<path fill="#FA6E8F" opacity="1.000000" stroke="none" 
	d="
M174.266052,242.637680 
	C176.456039,242.133286 178.403854,241.610123 180.732300,241.074738 
	C180.525040,241.822266 179.937134,242.581985 179.154541,243.568787 
	C176.789764,244.741425 174.609039,245.663727 172.456635,246.647980 
	C171.878433,246.912415 171.426163,247.597885 170.848862,247.696503 
	C164.196381,248.832626 157.530945,249.892883 150.422974,250.925079 
	C152.423401,249.934906 154.851746,248.941803 157.322464,248.068649 
	C159.035080,247.463425 160.806107,247.023468 162.792068,246.220673 
	C163.653473,245.851639 164.273849,245.771622 165.616150,245.796341 
	C168.579941,244.865143 170.821808,243.829208 173.063675,242.793274 
	C173.374344,242.683304 173.694412,242.625183 174.266052,242.637680 
z"/>
<path fill="#FA6E8F" opacity="1.000000" stroke="none" 
	d="
M232.385086,196.993149 
	C233.848602,193.834412 235.662979,190.604477 237.989471,187.415833 
	C238.324341,189.976059 238.147125,192.494980 237.969894,195.013885 
	C237.969894,195.013885 238.000412,195.012787 238.003998,194.998016 
	C236.250366,195.629471 234.493149,196.275711 232.385086,196.993149 
z"/>
<path fill="#FB7F9D" opacity="1.000000" stroke="none" 
	d="
M217.961929,214.248566 
	C219.577560,211.912537 221.499405,209.513367 223.769165,207.135101 
	C222.167419,209.499146 220.217773,211.842300 217.961929,214.248566 
z"/>
<path fill="#FA5F84" opacity="1.000000" stroke="none" 
	d="
M233.621613,210.016388 
	C232.523788,211.915878 231.067520,213.844772 229.286957,215.864441 
	C230.396179,213.985413 231.829681,212.015610 233.621613,210.016388 
z"/>
<path fill="#FB7F9D" opacity="1.000000" stroke="none" 
	d="
M213.888428,218.377747 
	C214.370773,217.344238 215.064865,216.328674 216.120346,215.431824 
	C216.481720,215.550537 216.487289,215.578674 216.262695,215.911774 
	C215.674255,216.919571 215.310425,217.594284 214.946594,218.268997 
	C214.667297,218.330139 214.385162,218.372375 213.888428,218.377747 
z"/>
<path fill="#FA6E8F" opacity="1.000000" stroke="none" 
	d="
M215.172272,218.433350 
	C215.310425,217.594284 215.674255,216.919571 216.265015,215.928009 
	C218.793396,217.583313 217.474228,218.229172 215.172272,218.433350 
z"/>
<path fill="#FB7F9D" opacity="1.000000" stroke="none" 
	d="
M210.871796,221.262405 
	C211.276947,220.322922 211.969009,219.341522 212.993286,218.523087 
	C212.603256,219.530869 211.880981,220.375671 210.871796,221.262405 
z"/>
<path fill="#FA6E8F" opacity="1.000000" stroke="none" 
	d="
M193.286713,235.808914 
	C193.792297,234.885056 194.630844,233.985703 195.817032,233.092087 
	C195.316345,234.009705 194.468018,234.921555 193.286713,235.808914 
z"/>
<path fill="#FA6E8F" opacity="1.000000" stroke="none" 
	d="
M186.165680,239.322510 
	C186.437424,238.772491 186.909882,238.408859 187.695404,238.024002 
	C187.461105,238.504807 186.913742,239.006851 186.165680,239.322510 
z"/>
<path fill="#FA6E8F" opacity="1.000000" stroke="none" 
	d="
M198.260223,232.754028 
	C198.387833,232.169510 198.827698,231.614746 199.549454,231.011185 
	C199.411728,231.569519 198.992111,232.176651 198.260223,232.754028 
z"/>
<path fill="#F83363" opacity="1.000000" stroke="none" 
	d="
M118.784042,23.850718 
	C115.968582,25.134481 112.886963,26.089556 109.399391,26.656197 
	C107.804794,25.509211 106.676895,24.247509 105.415039,24.095127 
	C102.647102,23.760866 99.811325,23.988377 97.003242,23.986509 
	C96.990746,23.739918 96.978241,23.493324 96.949554,22.873928 
	C97.661285,22.221420 98.389198,21.941715 99.760628,21.720108 
	C101.648842,20.916405 102.893539,20.054604 104.138237,19.192801 
	C104.442131,19.162724 104.746033,19.132648 105.515076,19.125149 
	C107.425812,22.247299 109.689613,23.599770 113.228546,23.081900 
	C114.933670,22.832380 116.751228,23.351152 118.784042,23.850718 
z"/>
<path fill="#F81E53" opacity="1.000000" stroke="none" 
	d="
M97.037460,24.301029 
	C99.811325,23.988377 102.647102,23.760866 105.415039,24.095127 
	C106.676895,24.247509 107.804794,25.509211 109.022545,26.694126 
	C106.977219,27.434721 104.902786,27.748951 102.230713,27.794788 
	C100.755318,27.350439 99.877579,27.174484 98.999832,26.998528 
	C98.357109,26.204203 97.714394,25.409878 97.037460,24.301029 
z"/>
<path fill="#FB7696" opacity="1.000000" stroke="none" 
	d="
M72.180176,33.721619 
	C74.396797,31.956287 76.995567,30.280098 79.797333,28.802876 
	C77.520996,30.604816 75.041656,32.207790 72.180176,33.721619 
z"/>
<path fill="#F94F78" opacity="1.000000" stroke="none" 
	d="
M34.221546,71.902863 
	C35.224785,69.566025 36.585644,67.221458 38.221588,64.701263 
	C39.673035,68.301636 37.084587,70.076317 34.221546,71.902863 
z"/>
<path fill="#F94F78" opacity="1.000000" stroke="none" 
	d="
M28.407637,81.006081 
	C28.994213,79.299408 29.961706,77.585182 31.195833,75.693214 
	C30.571163,77.343155 29.679859,79.170845 28.407637,81.006081 
z"/>
<path fill="#F93A68" opacity="1.000000" stroke="none" 
	d="
M98.863144,27.291008 
	C99.877579,27.174484 100.755318,27.350439 101.826851,27.809559 
	C100.562088,29.036116 99.103539,29.979506 97.305305,30.913181 
	C97.552567,29.796810 98.139503,28.690149 98.863144,27.291008 
z"/>
<path fill="#FB7696" opacity="1.000000" stroke="none" 
	d="
M82.122467,28.700485 
	C82.670113,27.740496 83.578926,26.909725 84.824219,26.129845 
	C84.268333,27.063726 83.375984,27.946716 82.122467,28.700485 
z"/>
<path fill="#F83363" opacity="1.000000" stroke="none" 
	d="
M90.592651,24.761341 
	C91.288338,24.731297 91.758499,24.823292 92.589493,24.909952 
	C92.003944,25.221867 91.057587,25.539112 90.049286,25.542181 
	C90.113960,25.113127 90.240555,24.998253 90.592651,24.761341 
z"/>
<path fill="#F94F78" opacity="1.000000" stroke="none" 
	d="
M42.414993,60.025181 
	C42.727119,59.283367 43.409538,58.540394 44.391521,57.705673 
	C44.055817,58.417290 43.420551,59.220654 42.414993,60.025181 
z"/>
<path fill="#F93A68" opacity="1.000000" stroke="none" 
	d="
M90.977425,31.224962 
	C90.769714,32.113979 90.186340,32.953747 89.304871,33.903244 
	C89.538437,33.067219 90.070099,32.121464 90.977425,31.224962 
z"/>
<path fill="#F83363" opacity="1.000000" stroke="none" 
	d="
M45.658905,67.994370 
	C45.528248,68.589943 45.066784,69.185280 44.346291,69.905800 
	C44.500877,69.352028 44.914490,68.673080 45.658905,67.994370 
z"/>
<path fill="#F83363" opacity="1.000000" stroke="none" 
	d="
M162.946991,27.123709 
	C159.806366,26.302130 156.665726,25.480547 153.238297,24.419018 
	C155.293900,23.789032 157.680847,23.565359 159.964111,22.954346 
	C161.675583,22.496351 163.253662,21.539846 164.937698,20.416759 
	C165.453461,20.021740 165.922638,20.015255 166.739594,19.951113 
	C172.817017,21.897455 178.546677,23.901453 184.656876,26.194098 
	C185.037399,26.482746 185.051895,26.977966 184.640823,26.982456 
	C181.486496,25.991272 178.743256,24.995598 175.536255,23.996721 
	C172.111267,23.993771 169.104248,23.694523 166.210632,24.136959 
	C164.998856,24.322239 164.027588,26.080561 162.946991,27.123709 
z"/>
<path fill="#F82558" opacity="1.000000" stroke="none" 
	d="
M176.000000,23.999924 
	C178.743256,24.995598 181.486496,25.991272 184.837967,27.263702 
	C194.713211,33.520355 203.965378,39.523678 213.275574,45.435608 
	C214.019867,45.908241 215.164795,45.749962 216.123550,45.884872 
	C219.716827,49.336605 223.310120,52.788334 227.022644,56.551216 
	C227.596954,58.207069 227.666748,59.938084 228.567230,60.836151 
	C236.742508,68.989304 241.235886,79.490417 246.551529,89.381844 
	C249.504974,94.877701 250.876068,101.223915 252.791870,107.856232 
	C251.378387,110.348557 250.133377,112.171532 248.693237,113.755615 
	C247.708710,113.270790 246.919327,113.024841 246.034943,112.575058 
	C245.762985,112.084030 245.506714,111.957413 245.171112,111.991371 
	C245.060669,111.291634 244.950241,110.591896 244.957428,109.160393 
	C245.077148,107.627136 245.079285,106.825653 245.290741,105.791092 
	C244.670914,104.025803 243.841751,102.493584 242.779205,100.656548 
	C242.209549,98.257866 241.873245,96.164001 241.634399,93.774582 
	C240.816559,92.589012 239.901230,91.698982 238.764175,90.531952 
	C237.608917,88.082077 236.911957,85.765633 235.696838,83.763702 
	C232.255600,78.094193 228.602295,72.553413 225.030151,66.600037 
	C223.690140,64.821091 222.352463,63.404037 221.014801,61.986984 
	C220.123444,61.154713 219.232101,60.322441 218.177490,58.851864 
	C216.691879,57.126247 215.369522,56.038940 214.047165,54.951633 
	C202.340683,42.943474 188.080246,35.138134 172.202820,29.019447 
	C171.995529,27.928440 171.996857,27.468355 172.192902,26.749001 
	C173.591751,25.659794 174.795883,24.829861 176.000000,23.999924 
z"/>
<path fill="#FA6387" opacity="1.000000" stroke="none" 
	d="
M216.070831,45.547050 
	C215.164795,45.749962 214.019867,45.908241 213.275574,45.435608 
	C203.965378,39.523678 194.713211,33.520355 185.249039,27.259212 
	C185.051895,26.977966 185.037399,26.482746 185.022156,26.235451 
	C192.229507,29.742554 199.599701,33.245342 206.612106,37.358150 
	C210.087006,39.396202 212.903671,42.556602 216.070831,45.547050 
z"/>
<path fill="#F81E53" opacity="1.000000" stroke="none" 
	d="
M248.888367,113.994499 
	C250.133377,112.171532 251.378387,110.348557 252.835785,108.223434 
	C253.442886,108.227043 253.837601,108.532791 254.438629,108.977280 
	C254.725052,109.839027 254.805145,110.562050 254.607513,111.939491 
	C254.256073,115.390457 254.182358,118.187004 253.801880,121.232681 
	C253.085617,123.218140 252.308212,124.959312 252.331055,126.689919 
	C252.424866,133.795639 252.762222,140.898148 253.008423,148.433014 
	C253.373947,151.249924 253.741043,153.635651 254.095703,156.434814 
	C254.338074,158.894730 254.592911,160.941193 254.847717,162.987671 
	C254.672028,164.094711 254.496338,165.201767 254.298203,166.644348 
	C254.068817,166.992065 253.861877,167.004257 253.183960,166.796906 
	C252.141586,166.387238 251.570175,166.197144 250.998413,165.668610 
	C250.994125,164.878937 250.990234,164.427704 250.949677,163.625076 
	C250.233292,161.848633 249.553574,160.423569 248.891876,158.668365 
	C248.659241,157.541733 248.408585,156.745224 248.178940,155.514648 
	C248.136200,153.056656 248.072433,151.032745 248.008682,149.008850 
	C248.057159,147.282913 248.105621,145.556976 248.474243,143.111267 
	C248.613098,138.935608 248.431808,135.479706 248.250519,132.023819 
	C248.171021,130.297470 248.091522,128.571121 248.138855,125.993118 
	C248.237778,123.112503 248.209885,121.083534 248.410675,118.766083 
	C248.722366,116.983238 248.805359,115.488869 248.888367,113.994499 
z"/>
<path fill="#F82558" opacity="1.000000" stroke="none" 
	d="
M253.009995,148.001831 
	C252.762222,140.898148 252.424866,133.795639 252.331055,126.689919 
	C252.308212,124.959312 253.085617,123.218140 254.062943,121.468857 
	C255.683060,123.675972 256.735352,125.896057 257.787598,128.116150 
	C257.815460,129.484695 257.843323,130.853256 257.369659,132.619415 
	C252.973145,132.908112 254.242157,135.843903 254.009415,137.881775 
	C253.687042,140.704773 255.405762,141.163101 257.652161,140.989975 
	C257.712158,142.989197 257.772156,144.988434 257.510010,147.448212 
	C256.828705,147.962921 256.469543,148.017075 255.721954,148.047287 
	C254.559052,148.016174 253.784515,148.009003 253.009995,148.001831 
z"/>
<path fill="#FA6387" opacity="1.000000" stroke="none" 
	d="
M257.891418,127.671432 
	C256.735352,125.896057 255.683060,123.675972 254.369720,121.219711 
	C254.182358,118.187004 254.256073,115.390457 254.601044,112.304031 
	C255.913254,117.084999 256.954254,122.155861 257.891418,127.671432 
z"/>
<path fill="#FA6387" opacity="1.000000" stroke="none" 
	d="
M256.110352,148.071228 
	C256.469543,148.017075 256.828705,147.962921 257.455963,147.874786 
	C256.968567,152.734558 256.213104,157.628296 255.152679,162.754852 
	C254.592911,160.941193 254.338074,158.894730 254.354706,156.176437 
	C255.120895,153.026825 255.615616,150.549026 256.110352,148.071228 
z"/>
<path fill="#F81E53" opacity="1.000000" stroke="none" 
	d="
M257.774750,140.559586 
	C255.405762,141.163101 253.687042,140.704773 254.009415,137.881775 
	C254.242157,135.843903 252.973145,132.908112 257.252441,133.013519 
	C257.723633,135.383087 257.810486,137.756149 257.774750,140.559586 
z"/>
<path fill="#F82154" opacity="1.000000" stroke="none" 
	d="
M250.986343,163.976471 
	C250.990234,164.427704 250.994125,164.878937 250.684738,165.709534 
	C250.616119,167.401627 250.860779,168.714355 251.105453,170.027069 
	C251.171280,171.178009 251.237091,172.328934 251.552063,173.713013 
	C251.769073,174.362961 251.736908,174.779755 251.592529,175.490540 
	C250.037766,177.533691 248.196396,179.090317 247.238968,181.073654 
	C245.464401,184.749695 244.411682,188.775696 242.616547,192.439484 
	C242.027740,193.641190 240.070862,194.172577 238.354736,195.012207 
	C238.147125,192.494980 238.324341,189.976059 238.269653,187.227676 
	C238.230865,186.190018 238.423981,185.381836 239.207367,184.297714 
	C240.405609,182.663208 241.013580,181.304657 241.621552,179.946121 
	C241.817062,178.536362 242.012558,177.126587 242.583939,175.333435 
	C243.664734,172.958878 244.369629,170.967712 245.104828,168.574677 
	C245.015976,167.384033 244.896820,166.595276 244.777679,165.806519 
	C244.851227,165.108765 244.924789,164.411026 245.316681,163.463501 
	C245.811874,163.226837 245.988693,163.239929 246.416824,163.486710 
	C248.107529,163.805756 249.546936,163.891113 250.986343,163.976471 
z"/>
<path fill="#FB7696" opacity="1.000000" stroke="none" 
	d="
M103.781334,19.120232 
	C102.893539,20.054604 101.648842,20.916405 100.055450,21.652191 
	C100.945984,20.700008 102.185204,19.873837 103.781334,19.120232 
z"/>
<path fill="#F83363" opacity="1.000000" stroke="none" 
	d="
M251.381165,169.883621 
	C250.860779,168.714355 250.616119,167.401627 250.685120,166.047974 
	C251.570175,166.197144 252.141586,166.387238 252.876343,166.842407 
	C252.578766,167.985031 252.117828,168.862610 251.381165,169.883621 
z"/>
<path fill="#F81E53" opacity="1.000000" stroke="none" 
	d="
M175.536255,23.996723 
	C174.795883,24.829861 173.591751,25.659794 171.886093,26.771217 
	C170.917053,27.399323 170.449539,27.745937 169.982025,28.092548 
	C167.880020,27.864075 165.778015,27.635603 163.311493,27.265419 
	C164.027588,26.080561 164.998856,24.322239 166.210632,24.136959 
	C169.104248,23.694523 172.111267,23.993771 175.536255,23.996723 
z"/>
<path fill="#F94F78" opacity="1.000000" stroke="none" 
	d="
M221.040985,62.319077 
	C222.352463,63.404037 223.690140,64.821091 224.743835,66.590332 
	C224.081802,66.903748 223.703735,66.864983 223.325668,66.826210 
	C223.325668,66.826210 223.164688,66.796165 223.142517,66.715729 
	C222.435959,65.307251 221.751572,63.979206 221.040985,62.319077 
z"/>
<path fill="#F94F78" opacity="1.000000" stroke="none" 
	d="
M214.159317,55.253227 
	C215.369522,56.038940 216.691879,57.126247 218.033157,58.581200 
	C216.791870,57.817501 215.531662,56.686157 214.159317,55.253227 
z"/>
<path fill="#F93A68" opacity="1.000000" stroke="none" 
	d="
M170.148880,28.330620 
	C170.449539,27.745937 170.917053,27.399323 171.691360,27.030491 
	C171.996857,27.468355 171.995529,27.928440 171.973053,28.734333 
	C171.406509,28.909660 170.861130,28.739176 170.148880,28.330620 
z"/>
<path fill="#FA5F84" opacity="1.000000" stroke="none" 
	d="
M85.838821,174.844162 
	C87.129982,173.421967 88.421150,171.999771 90.288551,170.320572 
	C101.456100,159.978775 112.157585,150.005524 122.561943,139.731384 
	C125.189842,137.136383 124.964104,133.578018 122.166595,130.827255 
	C111.007660,119.854813 99.711235,109.020767 88.667686,97.934280 
	C87.348633,96.610100 86.120789,93.162781 86.836319,92.241142 
	C88.675812,89.871742 91.468498,87.737198 95.031143,89.664024 
	C96.050262,90.215202 97.122055,90.792488 97.925316,91.600677 
	C109.306091,103.051498 120.644737,114.544189 131.866089,126.344757 
	C130.666275,128.109131 129.631958,129.585632 128.514099,130.995941 
	C125.728973,134.509674 126.427208,138.404373 130.826523,142.550217 
	C134.073654,145.610275 136.664978,143.749756 139.262512,141.308090 
	C140.644211,140.009277 142.384979,139.092422 144.272949,138.131500 
	C156.373795,150.001587 168.150742,161.758057 179.970856,173.470993 
	C182.013901,175.495514 183.183838,177.669983 180.542847,179.777237 
	C178.147888,181.688217 175.924576,184.624161 172.188110,180.845932 
	C161.552689,170.091690 150.568512,159.682755 139.744919,149.114029 
	C135.226776,144.702271 132.869095,144.634583 128.469116,149.023834 
	C118.453300,159.015244 108.594063,169.170471 98.339081,178.909409 
	C96.314720,180.831879 92.511421,182.423965 90.065399,181.856049 
	C88.213692,181.426132 87.216362,177.316345 85.838821,174.844162 
z"/>
<path fill="#FC9EB4" opacity="1.000000" stroke="none" 
	d="
M85.499939,174.954590 
	C87.216362,177.316345 88.213692,181.426132 90.065399,181.856049 
	C92.511421,182.423965 96.314720,180.831879 98.339081,178.909409 
	C108.594063,169.170471 118.453300,159.015244 128.469116,149.023834 
	C132.869095,144.634583 135.226776,144.702271 139.744919,149.114029 
	C150.568512,159.682755 161.552689,170.091690 172.188110,180.845932 
	C175.924576,184.624161 178.147888,181.688217 180.542847,179.777237 
	C183.183838,177.669983 182.013901,175.495514 179.970856,173.470993 
	C168.150742,161.758057 156.373795,150.001587 144.285248,137.714645 
	C143.977478,135.780014 143.966705,134.390594 144.268143,132.874146 
	C156.395111,121.017189 168.242599,109.319923 180.003967,97.536713 
	C183.383026,94.151398 182.635223,92.044556 178.121506,90.422150 
	C174.891113,89.261032 172.808105,90.527649 170.635254,92.700836 
	C159.454086,103.883804 148.189240,114.983124 136.540863,126.091034 
	C134.749939,126.055870 133.371765,126.041306 131.993576,126.026749 
	C120.644737,114.544189 109.306091,103.051498 97.925316,91.600677 
	C97.122055,90.792488 96.050262,90.215202 95.031143,89.664024 
	C91.468498,87.737198 88.675812,89.871742 86.836319,92.241142 
	C86.120789,93.162781 87.348633,96.610100 88.667686,97.934280 
	C99.711235,109.020767 111.007660,119.854813 122.166595,130.827255 
	C124.964104,133.578018 125.189842,137.136383 122.561943,139.731384 
	C112.157585,150.005524 101.456100,159.978775 90.531326,170.093201 
	C91.104660,168.641037 91.769791,166.921356 92.956871,165.715485 
	C101.603836,156.931671 110.250229,148.141464 119.131973,139.597748 
	C122.230911,136.616776 122.464088,134.646332 119.236992,131.524414 
	C108.583603,121.218132 98.190033,110.642677 87.729225,100.138199 
	C82.823357,95.211845 83.068138,91.650925 88.367142,87.242386 
	C91.162834,84.916481 93.921700,84.261024 96.805168,86.960312 
	C100.322540,90.252983 103.859123,93.528542 107.282860,96.917130 
	C114.859665,104.416161 122.371094,111.981247 129.909195,119.519379 
	C134.505508,124.115715 134.502670,124.112862 139.268112,119.344872 
	C149.394745,109.212822 159.523560,99.082939 169.653915,88.954620 
	C172.360870,86.248199 175.454865,85.034538 179.115997,86.859001 
	C182.554047,88.572296 184.718613,91.341339 183.872513,95.277199 
	C183.457489,97.207756 182.135117,99.173271 180.712204,100.620331 
	C170.435272,111.071709 160.118713,121.488365 149.604065,131.699112 
	C146.561691,134.653564 146.761902,136.562881 149.689957,139.414734 
	C160.189697,149.641266 170.484970,160.077988 180.837143,170.455597 
	C185.755539,175.386093 186.041077,178.369232 182.066772,182.297897 
	C178.109711,186.209549 173.536713,185.948669 169.086319,181.506180 
	C158.947922,171.385895 148.675934,161.392471 138.782043,151.038101 
	C135.423325,147.523071 133.243073,148.069061 130.233612,151.128494 
	C119.837929,161.696793 109.206345,172.033936 98.861328,182.650818 
	C93.357536,188.299240 88.100807,185.858124 84.905563,179.984726 
	C84.236618,178.755096 85.037506,176.725815 85.499939,174.954590 
z"/>
<path fill="#FB7F9D" opacity="1.000000" stroke="none" 
	d="
M223.285248,67.185410 
	C223.703735,66.864983 224.081802,66.903748 224.746185,66.952225 
	C228.602295,72.553413 232.255600,78.094193 235.696838,83.763702 
	C236.911957,85.765633 237.608917,88.082077 238.785583,90.873886 
	C239.864792,92.351936 240.700851,93.211037 241.536926,94.070137 
	C241.873245,96.164001 242.209549,98.257866 242.804886,101.012878 
	C243.736420,103.124062 244.408920,104.574112 245.081406,106.024162 
	C245.079285,106.825653 245.077148,107.627136 244.934723,108.806572 
	C243.706650,107.586761 242.045044,106.126671 241.623398,104.369118 
	C238.687057,92.128998 232.349319,81.632271 225.326355,71.442696 
	C224.495773,70.237587 223.932190,68.848450 223.285248,67.185410 
z"/>
<path fill="#FB7F9D" opacity="1.000000" stroke="none" 
	d="
M248.181992,119.054565 
	C248.209885,121.083534 248.237778,123.112503 248.142654,125.560791 
	C246.866760,121.476006 245.713882,116.971901 244.866058,112.229584 
	C245.506714,111.957413 245.762985,112.084030 246.021851,112.967377 
	C246.796494,115.393867 247.489243,117.224213 248.181992,119.054565 
z"/>
<path fill="#FB7F9D" opacity="1.000000" stroke="none" 
	d="
M246.165527,163.253021 
	C245.988693,163.239929 245.811874,163.226837 245.386475,163.119614 
	C245.855881,158.389816 246.573853,153.754150 247.650238,149.063660 
	C248.072433,151.032745 248.136200,153.056656 247.873932,155.733276 
	C247.020264,158.573792 246.492630,160.761581 246.009308,163.029114 
	C246.053635,163.108871 246.165527,163.253021 246.165527,163.253021 
z"/>
<path fill="#FB7F9D" opacity="1.000000" stroke="none" 
	d="
M247.934753,132.278366 
	C248.431808,135.479706 248.613098,138.935608 248.519470,142.682266 
	C248.036011,139.492996 247.827499,136.012955 247.934753,132.278366 
z"/>
<path fill="#FB7F9D" opacity="1.000000" stroke="none" 
	d="
M172.783005,242.607910 
	C170.821808,243.829208 168.579941,244.865143 165.928070,245.831558 
	C167.846146,244.648880 170.174240,243.535706 172.783005,242.607910 
z"/>
<path fill="#FB7F9D" opacity="1.000000" stroke="none" 
	d="
M244.459198,165.921478 
	C244.896820,166.595276 245.015976,167.384033 244.837494,168.763702 
	C243.559067,170.577606 242.578247,171.800583 241.597427,173.023560 
	C242.445190,170.694519 243.292953,168.365494 244.459198,165.921478 
z"/>
<path fill="#FA6E8F" opacity="1.000000" stroke="none" 
	d="
M241.431000,173.336685 
	C242.578247,171.800583 243.559067,170.577606 244.807220,169.165588 
	C244.369629,170.967712 243.664734,172.958878 242.643967,175.026917 
	C242.150513,175.083298 241.972900,175.062820 241.527863,175.046997 
	C241.261826,174.584366 241.263199,174.117096 241.431000,173.336685 
z"/>
<path fill="#FA6E8F" opacity="1.000000" stroke="none" 
	d="
M241.321899,180.038177 
	C241.013580,181.304657 240.405609,182.663208 239.423645,184.074493 
	C239.707184,182.794907 240.364731,181.462570 241.321899,180.038177 
z"/>
<path fill="#FA6E8F" opacity="1.000000" stroke="none" 
	d="
M248.410675,118.766083 
	C247.489243,117.224213 246.796494,115.393867 246.116837,113.171204 
	C246.919327,113.024841 247.708710,113.270790 248.693237,113.755615 
	C248.805359,115.488869 248.722366,116.983238 248.410675,118.766083 
z"/>
<path fill="#FA6E8F" opacity="1.000000" stroke="none" 
	d="
M245.290741,105.791092 
	C244.408920,104.574112 243.736420,103.124062 243.038239,101.317688 
	C243.841751,102.493584 244.670914,104.025803 245.290741,105.791092 
z"/>
<path fill="#FA6E8F" opacity="1.000000" stroke="none" 
	d="
M241.634399,93.774582 
	C240.700851,93.211037 239.864792,92.351936 239.007324,91.150894 
	C239.901230,91.698982 240.816559,92.589012 241.634399,93.774582 
z"/>
<path fill="#F83363" opacity="1.000000" stroke="none" 
	d="
M255.721954,148.047287 
	C255.615616,150.549026 255.120895,153.026825 254.367157,155.763000 
	C253.741043,153.635651 253.373947,151.249924 253.008423,148.433014 
	C253.784515,148.009003 254.559052,148.016174 255.721954,148.047287 
z"/>
<path fill="#F83363" opacity="1.000000" stroke="none" 
	d="
M250.949677,163.625076 
	C249.546936,163.891113 248.107529,163.805756 246.416824,163.486710 
	C246.165527,163.253021 246.053635,163.108871 246.298828,162.883575 
	C247.320648,161.438339 248.097244,160.218430 248.873840,158.998520 
	C249.553574,160.423569 250.233292,161.848633 250.949677,163.625076 
z"/>
<path fill="#FA6E8F" opacity="1.000000" stroke="none" 
	d="
M248.891876,158.668365 
	C248.097244,160.218430 247.320648,161.438339 246.254517,162.803818 
	C246.492630,160.761581 247.020264,158.573792 247.852921,156.167358 
	C248.408585,156.745224 248.659241,157.541733 248.891876,158.668365 
z"/>
<path fill="#F93A68" opacity="1.000000" stroke="none" 
	d="
M143.955933,133.001160 
	C143.966705,134.390594 143.977478,135.780014 143.975952,137.586304 
	C142.384979,139.092422 140.644211,140.009277 139.262512,141.308090 
	C136.664978,143.749756 134.073654,145.610275 130.826523,142.550217 
	C126.427208,138.404373 125.728973,134.509674 128.514099,130.995941 
	C129.631958,129.585632 130.666275,128.109131 131.866089,126.344749 
	C133.371765,126.041306 134.749939,126.055870 136.581894,126.424377 
	C139.342422,128.852600 141.649170,130.926880 143.955933,133.001160 
z"/>
<path fill="#FA5F84" opacity="1.000000" stroke="none" 
	d="
M144.268143,132.874146 
	C141.649170,130.926880 139.342422,128.852600 136.994629,126.444977 
	C148.189240,114.983124 159.454086,103.883804 170.635254,92.700836 
	C172.808105,90.527649 174.891113,89.261032 178.121506,90.422150 
	C182.635223,92.044556 183.383026,94.151398 180.003967,97.536713 
	C168.242599,109.319923 156.395111,121.017189 144.268143,132.874146 
z"/>
</svg>